# xmcd CD database file
#
# Track frame offsets:
#	150
#	10232
#	22315
#	31940
#	46157
#	65322
#	80935
#	91067
#	129582
#	138150
#	150372
#	160295
#	170800
#	183060
#	194102
#	205822
#	216790
#	226597
#	237920
#	258655
#
# Disc length: 3574 seconds
#
# Revision: 0
# Processed by: cddbd v1.4PL0 Copyright (c) Steve Scherf et al.
# Submitted via: CDex 1.51
#
DISCID=0e0df414
DTITLE=Astrud Gilberto - The very best of Astrud Gilberto
DYEAR=2003
DGENRE=Jazz
TTITLE0=Photograph
TTITLE1=So nice(Summer Samba)
TTITLE2=The Face I Love
TTITLE3=Who Needs Forever
TTITLE4=Wish Me A Rainbow
TTITLE5=Look To The Rainbow
TTITLE6=Once I Loved
TTITLE7=Beginning
TTITLE8=Maria Quiet
TTITLE9=On My Mind
TTITLE10=Waiting Of The Willow
TTITLE11=Agua De Beber
TTITLE12=Dindi
TTITLE13=Funny World
TTITLE14=And Roses And Roses
TTITLE15=The Gentle Rain
TTITLE16=Who Can I Turn To?
TTITLE17=(Take Me To)Aruanda
TTITLE18=Without Him
TTITLE19=Parade
EXTD=YEAR: 2003
EXTT0=
EXTT1=
EXTT2=
EXTT3=
EXTT4=
EXTT5=
EXTT6=
EXTT7=
EXTT8=
EXTT9=
EXTT10=
EXTT11=
EXTT12=
EXTT13=
EXTT14=
EXTT15=
EXTT16=
EXTT17=
EXTT18=
EXTT19=
PLAYORDER=
